<svg width="120" height="120" viewBox="0 0 120 120" xmlns="http://www.w3.org/2000/svg" role="img" aria-label="Badiani avatar">
  <rect width="120" height="120" rx="28" fill="#ffffff" stroke="#214098" stroke-width="4" />
  <g transform="translate(36.667, 18.000)">
    <path d="M46.666666666666664 60.66666666666667C46.666666666666664 48.06666666666666 38.96666666666667 42.0 32.31666666666667 39.9C38.96666666666667 36.75 43.166666666666664 29.4 43.166666666666664 21.0C43.166666666666664 8.400000000000006 33.71666666666667 0.0 20.066666666666666 0.0H0.0V84.0H21.233333333333334C35.7 84.0 46.666666666666664 75.36666666666667 46.666666666666664 60.66666666666667ZM34.416666666666664 21.0C34.416666666666664 30.1 28.700000000000003 36.166666666666664 19.25 36.166666666666664H8.75V8.166666666666671H19.25C26.950000000000003 8.166666666666671 34.416666666666664 11.549999999999997 34.416666666666664 21.0ZM38.5 60.66666666666667C38.5 69.3 31.5 75.83333333333333 21.0 75.83333333333333H8.75V44.333333333333336H21.0C30.916666666666664 44.333333333333336 38.5 50.166666666666664 38.5 60.66666666666667Z" fill="#214098" />
  </g>
</svg>